<svg xmlns="http://www.w3.org/2000/svg" viewBox="0 0 512 512" width="512" height="512">
  <defs>
    <linearGradient id="ns-grad" x1="0" y1="0" x2="1" y2="1">
      <stop offset="0" stop-color="#F58529" />
      <stop offset="0.5" stop-color="#DD2A7B" />
      <stop offset="1" stop-color="#8134AF" />
    </linearGradient>
  </defs>
  <rect width="512" height="512" rx="112" fill="url(#ns-grad)" />
  <rect x="204" y="138" width="104" height="44" rx="16" fill="#ffffff" />
  <path
    fill="#ffffff"
    fill-rule="evenodd"
    d="M140 168 H372 A44 44 0 0 1 416 212 V356 A44 44 0 0 1 372 400 H140 A44 44 0 0 1 96 356 V212 A44 44 0 0 1 140 168 Z M256 224 A66 66 0 1 1 256 356 A66 66 0 1 1 256 224 Z"
  />
  <g fill="#ffffff">
    <rect x="230" y="250" width="11" height="42" rx="5.5" />
    <rect x="250.5" y="250" width="11" height="42" rx="5.5" />
    <rect x="271" y="250" width="11" height="42" rx="5.5" />
    <rect x="226" y="286" width="60" height="13" rx="6.5" />
    <rect x="247" y="286" width="18" height="66" rx="9" />
  </g>
</svg>
